<?xml version="1.0" encoding="utf-8"?>
<!-- Generator: Adobe Illustrator 19.0.0, SVG Export Plug-In . SVG Version: 6.00 Build 0)  -->
<svg version="1.1" id="Layer_3" xmlns="http://www.w3.org/2000/svg" xmlns:xlink="http://www.w3.org/1999/xlink" x="0px" y="0px"
	 viewBox="0 0 1516 293" style="enable-background:new 0 0 1516 293;" xml:space="preserve">
<style type="text/css">
	.st0{fill:none;stroke:#FFFFFF;stroke-width:6;}
</style>
<path id="XMLID_46_" class="st0" d="M111.9,78.2H37.5V34.4h202.6v43.8h-74.4v188.6h-53.8V78.2z"/>
<path id="XMLID_48_" class="st0" d="M485.5,34.4v232.5h-53.8v-95.3H326.1v95.3h-53.8V34.4h53.8V126h105.6V34.4H485.5z"/>
<path id="XMLID_50_" class="st0" d="M549.6,243.3c-18.5-18.4-27.7-44.6-27.7-78.7V34.4h53.8v128.2c0,41.6,17.3,62.4,51.8,62.4
	c16.8,0,29.7-5,38.5-15.1c8.9-10.1,13.3-25.8,13.3-47.3V34.4h53.1v130.2c0,34.1-9.2,60.3-27.7,78.7c-18.5,18.4-44.3,27.6-77.5,27.6
	C594,270.8,568.1,261.7,549.6,243.3z"/>
<path id="XMLID_52_" class="st0" d="M933.1,44.7c15.2,6.9,26.8,16.6,35,29.2c8.2,12.6,12.3,27.6,12.3,44.8
	c0,17.1-4.1,31.9-12.3,44.7c-8.2,12.7-19.9,22.5-35,29.2c-15.2,6.8-33,10.1-53.6,10.1h-46.8v64.1h-53.8V34.4h100.6
	C900.1,34.4,917.9,37.8,933.1,44.7z M913.4,148.5c8.4-7,12.6-16.9,12.6-29.7c0-13.1-4.2-23.1-12.6-30.1c-8.4-7-20.7-10.5-36.9-10.5
	h-43.8v80.7h43.8C892.6,158.9,904.9,155.4,913.4,148.5z"/>
<path id="XMLID_55_" class="st0" d="M1160,266.9l-44.8-64.8h-2.7h-46.8v64.8h-53.8V34.4h100.6c20.6,0,38.5,3.4,53.6,10.3
	c15.2,6.9,26.8,16.6,35,29.2c8.2,12.6,12.3,27.6,12.3,44.8s-4.2,32.2-12.5,44.7c-8.3,12.5-20.1,22.1-35.4,28.7l52.1,74.7H1160z
	 M1146.4,88.7c-8.4-7-20.7-10.5-36.9-10.5h-43.8v81h43.8c16.2,0,28.4-3.5,36.9-10.6c8.4-7.1,12.6-17,12.6-29.9
	C1159,105.7,1154.8,95.7,1146.4,88.7z"/>
<path id="XMLID_58_" class="st0" d="M1333.8,53.5c-24.8,55.6-95.1,213.3-95.1,213.3h55.1l74.7-179.7l74.4,179.7h56.5L1395.5,34.4
	h-53.1C1342.3,34.4,1339.1,41.6,1333.8,53.5z"/>
</svg>
